<?xml version="1.0" encoding="UTF-8" standalone="no" ?>
<svg width="16px" height="16px" viewBox="0 0 16 16" version="1.1" xmlns="http://www.w3.org/2000/svg" xmlns:xlink="http://www.w3.org/1999/xlink" preserveAspectRatio="xMidYMid">
    <g id="icon" transform="scale(0.0618477000386548125241592578276)">
        <circle fill="#F53B4F" cx="129.3" cy="129.3" r="129.3" />
        <path fill="none" d="M0.8,0.8c84.8,0,169.6,0,257,0c0,84.8,0,169.6,0,257c-84.8,0-169.6,0-257,0C0.8,173,0.8,88.2,0.8,0.8z M76.8,11.8c-0.7,0.3-1.3,0.6-2,0.9c-11.1,4.9-20.6,11.4-30,19.1c-1,0.8-2,1.6-3.1,2.5c-20.8,18-37.9,47.4-40.1,75 c-0.1,2.6-0.1,5.1-0.1,7.7c0,0.9,0,1.9,0,2.9c0,2,0,4,0,6c0,3,0,6-0.1,9c-0.1,15.4,1.8,29.4,8.1,43.6c0.3,0.8,0.7,1.6,1,2.4 c5.2,11.7,11.9,22.3,20.3,32c0.6,0.8,1.2,1.5,1.9,2.3c16.5,19.5,39.9,31.9,64.1,38.7c1.2,0.3,2.4,0.7,3.6,1c31.7,7.4,67,1,94.7-15.6 c27.7-17.4,47.4-43.1,56.7-74.4c0.2-0.7,0.4-1.4,0.6-2.1c6.3-21.2,5.9-47.8-0.6-68.9c-0.2-0.7-0.4-1.4-0.6-2.2 c-9.8-32.1-31.8-58.6-61.1-75c-9.7-5.2-19.7-8.9-30.2-11.9c-1.2-0.3-2.4-0.7-3.6-1C130.2-2.3,101.2,1.1,76.8,11.8z" />
        <path fill="#FEFBFB" d="M57.1,87.9c6.2-0.1,12.4-0.2,18.8-0.2c1.9,0,3.9-0.1,5.9-0.1c20.3-0.2,20.3-0.2,27.3,6.2 c4.7,5.2,5.4,9,5.4,16c-0.5,4.6-2.5,7.5-5.4,11.1c-0.7,1-1.3,2-2,3c1.4,1.1,1.4,1.1,2.8,2.1c3.9,3.4,5.9,6.3,6.5,11.6 c0.4,7.5-1,13.1-5.4,19.3c-3.3,3.5-7.3,6.7-12.2,7.2c-0.8,0-1.5,0-2.3,0c-0.9,0-1.8,0-2.7,0c-0.9,0-1.9,0-2.8,0s-1.7,0-2.6,0 c-3.2,0-6.4,0-9.6-0.1C68,163.9,68,163.9,57,163.9C57.1,138.8,57.1,113.8,57.1,87.9z" />
        <path fill="#FEF9F9" d="M174.1,118.9c1.8,1.9,1.8,1.9,3.7,4.4c0.7,0.9,1.4,1.8,2.1,2.8c1.1,1.4,1.1,1.4,2.1,2.9 c0.7,0.9,1.4,1.9,2.1,2.8c1.3,1.8,2.6,3.5,3.9,5.3c2.7,3.6,5.4,7.2,8.1,10.8c0.3-9.9,0.7-19.8,1-30c2.6,0,5.3,0,8,0 c0,14.9,0,29.7,0,45c-8,0-8,0-10.1-1.5c-0.5-0.7-1-1.4-1.5-2.1c-0.6-0.8-1.1-1.5-1.7-2.3c-0.6-0.8-1.1-1.6-1.7-2.4 c-0.6-0.8-1.1-1.5-1.7-2.3c-1.8-2.5-3.6-5-5.4-7.5c-3-4-5.9-7.9-9-12c-0.3,9.9-0.7,19.8-1,30c-2.6,0-5.3,0-8,0c0.3-14.5,0.7-29,1-44 C171.2,117.7,171.2,117.7,174.1,118.9z" />
        <path fill="#FEF8F8" d="M155.5,119.4c4.3,2.5,4.3,2.5,5.7,4.6c-0.3,3-1.3,4.4-3,7c-2.3-1.1-4.1-2.1-6.1-3.7c-4.3-2-8.3-1.6-12.9-0.3 c-3.1,3-4.9,5.5-5.2,9.8c-0.2,7-0.2,11.7,4.2,17.2c3.3,2.7,6.9,2.4,11,2c2-1.3,4-2.6,6-4c4,0,4,0,6,2c0,2.4,0,2.4-1,5 c-6.7,5.2-12.7,5.9-21,5c-6.5-2.3-10.1-7-13-13c-1.1-3.3-1.2-5.8-1.2-9.3c0-1.1,0-2.2,0-3.4c0.5-7.3,3.6-13.3,9.1-18.2 C140,116,149.1,116.6,155.5,119.4z" />
        <path fill="#F54053" d="M82.8,129.7c1,0,2,0,3-0.1c5.5,0,9.6,0.1,14.3,3.3c2.7,4.1,2.5,7.2,2,12c-1.4,3.7-2.5,4.7-6,6.6 c-4.7,1.9-9.4,1.7-14.4,1.6c-1.4,0-1.4,0-2.8,0c-6.7-0.1-6.7-0.1-7.9-1.2c-0.1-1.5-0.1-3.1-0.1-4.7c0-0.9,0-1.9,0-2.8c0-1,0-2,0-3 s0-2,0-3c0-0.9,0-1.9,0-2.8c0-0.9,0-1.7,0-2.6C71.3,127.8,78.9,129.7,82.8,129.7z" />
        <path fill="#F54053" d="M80.3,97.7c0.7,0,1.5,0,2.3,0c5.9,0,11,0.6,16,3.8c2.4,3.7,2.3,7.2,1.6,11.4c-2.4,3.5-5,4.8-9,6 c-3.1,0.3-6.1,0.2-9.2,0.2c-1.2,0-1.2,0-2.5,0c-6,0-6,0-8.3-1.2c0-3.1,0-6.3-0.1-9.4c0-0.9,0-1.8,0-2.7c0-0.9,0-1.7,0-2.6 c0-1.2,0-1.2,0-2.4C71.3,96.1,76.7,97.7,80.3,97.7z" />
    </g>
</svg>
