<svg id="图层_1" data-name="图层 1" xmlns="http://www.w3.org/2000/svg" viewBox="0 0 312 519"><defs><style>.cls-1,.cls-7{fill:#f6ad65;}.cls-2{fill:#c18040;}.cls-3{fill:#fff;}.cls-4{fill:#6e823a;}.cls-5{fill:#bdcf47;}.cls-6{fill:#f4c99f;}.cls-7{stroke:#c39465;stroke-miterlimit:10;stroke-width:4px;}.cls-8{fill:#c39465;}</style></defs><title>bronze-medal</title><ellipse class="cls-1" cx="157" cy="373" rx="150.5" ry="146"/><circle class="cls-2" cx="157" cy="373" r="128"/><circle class="cls-1" cx="157" cy="373" r="114"/><path class="cls-3" d="M112,7" transform="translate(-111 -7)"/><polygon class="cls-4" points="180 0 312 0 226 160 204 160 153.81 48.79 180 0"/><path class="cls-1" d="M353,173l-1-2-2-2-2-1H189l-1,1-2,2v8l1,23a447.27,447.27,0,0,0,52,28v9h66v-9c33-14,47-24,47-24l1-2,1-4V177Zm-23,19-26,17v-5a4.33,4.33,0,0,0-2-4H243c-3,2-3,8-3,8l-32-16v-7H330Z" transform="translate(-111 -7)"/><path class="cls-5" d="M243,7l80,179s-54,6-114,0L111,7H243Z" transform="translate(-111 -7)"/><ellipse class="cls-6" cx="142.5" cy="211" rx="6.5" ry="12"/><path class="cls-6" d="M175,272c-30.3,23.57-45,59-36,63,10.66,4.74,10-25,44-52,30.7-24.38,60-26,56-33C234.43,242,202,251,175,272Z" transform="translate(-111 -7)"/><g id="body"><path class="cls-7" d="M331.51,362.63,338,359c1.3-.74,6-3.7,7.74-1.1,1,1.52-.91,5.81-4,10.29-2.81,4.1-9.33,12.53-9.7,14.19s1.46,8.33,2,10.91,2.28,8.79,1.53,11.19-4.49,9-14.08,8.85c-7.63-.09-9.84-2.33-10.09-3.69-.18-1-.73-4.24-.73-4.24s-6.28,3.87-9.22,5.34-10.89,5.53-10.89,5.53,1.53,7,1.78,9.84,1.13,6.87-.37,9.59c-1.35,2.46-5.56,6.57-15.49,6.51-7.76-.06-9.71-2.47-10.94-3.93s-1.48-8.49-1.48-10-.25-6.64-.25-6.64-10.51-.52-16.85-1c-5.74-.42-13.31-1.3-13.31-1.3s.28,3.05.55,5.25c.25,2,.3,6.08-1.75,8.09-2.77,2.69-9.91,2.89-13.84,2.51s-9.4-2.4-11-6,.5-8.24,1.35-10.94c.76-2.37,2.1-5.77,1.6-6.76s-5.29-2.21-12.17-9.1-15.89-30.81,4.29-47.46,57.4,1.44,59.36,2.67S331.51,362.63,331.51,362.63Z" transform="translate(-111 -7)"/></g><g id="shell"><path class="cls-7" d="M270.66,318.18c-18.24.81-31.93,9.85-38.73,19.73a82.9,82.9,0,0,0-6.09,10.14,30.41,30.41,0,0,1,12,3.22c6.55,3.5,14.15,7.28,19.14,23.75,3.76,12.44,5.21,24.27,15,26.88,11.07,3,36.89,1.48,49.24-10.51s14.75-21,11.62-32.83-17.25-32.81-36.89-38.35C287.44,317.81,279,317.81,270.66,318.18Z" transform="translate(-111 -7)"/></g><g id="lines"><path class="cls-8" d="M330.5,352.29c-.55-1.3-1.7-3.28-1.7-3.28s-.09,2.69-.33,4.1c-.36,2.31-1.63,7.1-2.37,6.4a159.93,159.93,0,0,1-10.45-13.4c-2.24-3.3-10-11.94-10.14-14.75-.09-1.39,1.66-6.1,1.66-6.1l-3.08-1.75c-1.15-.64-2.83-1.35-2.83-1.35s-1,6.42-2.12,7.62-7,3.41-11.62,5.17c-5.62,2.12-11.07,4.88-13.1,5.25-1.78.33-11.9-1.85-15.72-2.58-4.79-.92-12-3-13.69-4.16-1.94-1.38-4-4.95-4-4.95s-1.16.8-2.33,1.72a23,23,0,0,0-2.65,2.7s3,3,3.2,4.16c.24,1.58-1.66,3.71-3.22,5.74-1,1.22-3.6,6.35-3.6,6.35a9.6,9.6,0,0,1,2.81.83c1.61.75,3.12,1.52,3.12,1.52s3.89-9,6.42-9.86c2.16-.71,8.25,1.29,12.68,2.21,6.27,1.3,12.63,2.45,14,4.15s2.7,8.75,4,14.66c1.39,6.47,5,23.27,4.16,24.55s-7.47.83-11.26.37a50.1,50.1,0,0,1-8.39-2.31s.76,2.77,1,3.5c.37,1.06,1.52,4,1.52,4s7.43,3.27,29.37,1.24,32.79-17,35.87-23.6c4.12-8.89,4.64-13.61,4.64-13.61S331.05,353.59,330.5,352.29Zm-20,28.68c-5.56,3.49-19.91,7.19-22.51,5.8-2.07-1.12-5.16-18.26-6.64-25.91-.94-4.9-3.21-12.34-1.85-14.66.92-1.57,6.28-3.92,10.23-5.77,3.76-1.74,9.13-4.1,10.71-3.91,2.22.26,7,8,11.8,14.66s10,13.55,10.14,15.95S316.21,377.38,310.49,381Z" transform="translate(-111 -7)"/></g><g id="face"><path class="cls-8" d="M237.82,371.34c.66,3.7-1.24,7.53-5.33,7.88-3.35.29-6-2.05-6.67-5.76s1.5-7.19,4.82-7.78S237.17,367.62,237.82,371.34Z" transform="translate(-111 -7)"/><path class="cls-8" d="M213.77,371.66c.09,3.72-3.17,7.46-7.2,6.7-3.32-.63-5.23-3.58-4.86-7.27s3.39-6.42,6.74-6.09S213.68,367.79,213.77,371.66Z" transform="translate(-111 -7)"/><path class="cls-8" d="M224.18,385.39c1.52-1,4.07-3.49,5.72-1.39s-1.21,4.07-2.86,5.26-5.34,4.15-8,4.15c-2.49,0-6.27-3-8.67-5.07-1.95-1.65-2.85-3.79-1.75-5.07s2.8-.81,4.24.46c1.66,1.48,4.87,4.43,6.18,4.43S222.15,386.78,224.18,385.39Z" transform="translate(-111 -7)"/></g><path class="cls-6" d="M358,438c-19,26-36,41-54,44-5.92,1-6.23-1.61-6-3,1-6,24-10,51-46,14.52-19.37,16-40,19-59,.49-3.12,5.56-7.79,7-3C378,381,376.41,412.81,358,438Z" transform="translate(-111 -7)"/></svg>