<svg xmlns="http://www.w3.org/2000/svg" fill="currentColor" viewBox="0 0 1024 1024">
  <g id="icon">
    <circle class="cls-1" cx="551.62" cy="512.5" r="121.52"/>
    <path class="cls-1" d="M870.86,780.19c60.77-72.4,97.4-165.76,97.4-267.69,0-115.12-46.69-219.33-122.16-294.74l67.39-67.39C820.96,58.07,693.26,1,552.24,1,269.75,1,40.74,230.01,40.74,512.5s229.01,511.5,511.5,511.5c157.21,0,297.84-70.92,391.67-182.52l-73.05-61.29ZM551.62,781.58c-148.61,0-269.08-120.47-269.08-269.08s120.47-269.08,269.08-269.08,269.08,120.47,269.08,269.08-120.47,269.08-269.08,269.08Z"/>
  </g>
</svg>
