<svg xmlns="http://www.w3.org/2000/svg" fill="currentColor" viewBox="0 0 1024 1024">
  <g id="icon">
    <g>
      <path d="M 1024,512 A 512,512 0 0 1 0,512 A 512,512 0 0 1 1024,512 M 850,512 A 338,338 0 0 0 174,512 A 338,338 0 0 0 850,512 Z"/>
    </g>
    <g>
      <circle cx="775" cy="827" r="7"/>
      <circle cx="827" cy="775" r="7"/>
      <circle cx="346.5" cy="617" r="40"/>
      <circle cx="677.5" cy="617" r="40"/>
      <path d="M523.4,676.7c-1-9.1-0.8-18.2,0.1-27.6c9.7-6.3,17.9-13.6,19.2-26c-3.1-7.5-9.5-9.9-16.3-10.1c-4.5-0.2-9.6-0.2-14.4-0.1
c-4.8,0-9.8-0.1-14.4,0.1c-6.8,0.3-13.2,2.6-16.3,10.1c1.3,12.4,9.5,19.7,19.2,26c0.9,9.4,1,18.4,0.1,27.6
c-9.7,12.8-23.4,21.2-33.5,32.5c-2.5,7.6-0.6,12.8,5.9,16.1c6.7,1.6,11.2-2,15.6-6.1c7.5-7.1,15.1-14.2,23.5-22.1
c8.4,7.9,15.9,15,23.5,22.1c4.3,4.1,8.9,7.7,15.6,6.1c6.5-3.3,8.4-8.6,5.9-16.1C546.8,697.9,533.1,689.4,523.4,676.7z"/>
    </g>
  </g>
</svg>
