<svg xmlns="http://www.w3.org/2000/svg" fill="currentColor" viewBox="0 0 1024 1024">
  <g id="icon">
    <path d="M985.2,512.9c14.1-27,12.5-54.7-19-54.7c-4.7,0-12.6,0-23.7,0c12.6-28.7,32.9-72.2,38.7-105.1
c16.3-93.3-31.9-165.6-124.6-186.1c-44-9.7-88.7-10-132.4-2.4C555.8,194,427.6,284.8,333,425c-6.1,9.1-11.6,18.6-17.5,28.2
c-5.6,0.6-10.8,1.7-15.5,1.9c-33,1-57.5,12.3-75,43.7c-52.6,94.5-107.9,187.5-162.2,281.1c-5.5,9.6-11.9,18.9-16.1,29
c-12,29.2,1.3,54,32.4,55.3c47.8,2,95.8,0.5,141.2,0.5C261,801,430,496,452.8,453.6c-24.6,0-48.5,0-75.2,0
c7.7-19.1,17.7-31.4,27.6-43.7c60.7-75.4,136.7-130.3,225.6-168.4c62.7-26.9,128.1-35,195.4-29c79,7,121.3,64.8,103.8,141.6
c-8,35-22.4,74.1-44.3,102.5c-25.3,0-47.4,0-77.5,1.1c-76.7,132.5-153.5,265.3-234.5,405.3c60.3,0,114.3,1.9,166,0.5
c31-0.9,49.4-11.1,65.1-37.4C868,720,889,682,939.5,592.9C954.6,566.2,970.9,540.1,985.2,512.9z"/>
    <path d="M129.5,531.5C89.3,601.8,48,671.4,8.1,741.8C-7.6,769.7,0,789,32.3,800.5c55.7-96,111.4-192.1,169.2-291.9
C170,509,145.1,504.2,129.5,531.5z"/>
    <path d="M991.9,531c-55.7,96-111.4,192.1-169.2,291.9c31.6-0.4,56.5,4.4,72.1-23c40.2-70.3,81.5-139.9,121.3-210.3
C1031.8,561.8,1024.2,542.5,991.9,531z"/>
  </g>
</svg>
